<svg xmlns="http://www.w3.org/2000/svg" width="300" height="323" viewBox="0 0 300 323">
  <defs>
    <style>
      .cls-1 {
        fill: #009ef0;
        fill-rule: evenodd;
      }
    </style>
  </defs>
  <path class="cls-1" d="M85.5,212.672H263.377A36.706,36.706,0,0,0,300,176.029V100.354a0.846,0.846,0,0,0-.066-0.4c0-.133-0.067-0.332-0.067-0.465s-0.066-.265-0.066-0.4a4.465,4.465,0,0,1-.133-0.465c-0.066-.133-0.066-0.265-0.132-0.4s-0.067-.266-0.133-0.4a3.23,3.23,0,0,1-.2-0.465,1.448,1.448,0,0,0-.2-0.332l-0.2-.4c-0.066-.133-0.133-0.2-0.2-0.332s-0.2-.266-0.265-0.4a1.173,1.173,0,0,0-.266-0.332c-0.066-.133-0.2-0.2-0.265-0.332s-0.2-.2-0.266-0.332a1,1,0,0,0-.265-0.265l-0.332-.332c-0.133-.067-0.2-0.2-0.332-0.266s-0.265-.2-0.4-0.266-0.2-.133-0.331-0.2a1.4,1.4,0,0,1-.4-0.266l-0.4-.2-0.4-.2-0.4-.2c-0.132-.066-0.265-0.066-0.4-0.133a1.225,1.225,0,0,0-.464-0.133,2.849,2.849,0,0,1-.332-0.066,1.459,1.459,0,0,0-.531-0.067,1.506,1.506,0,0,0-.265-0.066L66.86,61.122V29.657a4.1,4.1,0,0,0-.066-0.93,0.5,0.5,0,0,0-.066-0.265c0-.2-0.066-0.4-0.066-0.6-0.066-.2-0.066-0.332-0.133-0.531,0-.133-0.066-0.2-0.066-0.332l-0.2-.6c0-.066-0.066-0.2-0.066-0.265a1.988,1.988,0,0,0-.265-0.531c-0.067-.066-0.067-0.2-0.133-0.266a1.4,1.4,0,0,0-.265-0.4c-0.066-.133-0.133-0.2-0.2-0.332s-0.133-.2-0.2-0.332-0.2-.265-0.265-0.4l-0.2-.2-0.4-.4-0.2-.2a2.893,2.893,0,0,0-.464-0.4c-0.066-.066-0.2-0.133-0.265-0.2-0.133-.133-0.265-0.2-0.4-0.332a6.1,6.1,0,0,0-.531-0.332c-0.066-.066-0.133-0.066-0.2-0.133-0.265-.133-0.6-0.265-0.862-0.4L12.456,0.714A8.969,8.969,0,0,0,5.49,17.243L48.88,35.565V231.924a36.679,36.679,0,0,0,31.913,36.311,36.151,36.151,0,1,0,67.143,18.586,35.509,35.509,0,0,0-4.976-18.254H223.5a35.676,35.676,0,0,0-4.976,18.254,36.159,36.159,0,1,0,36.159-36.178H85.5a18.735,18.735,0,0,1-18.709-18.719v-24.3A37.027,37.027,0,0,0,85.5,212.672Zm44.584,74.083A18.245,18.245,0,1,1,111.842,268.5,18.283,18.283,0,0,1,130.087,286.755Zm142.91,0A18.245,18.245,0,1,1,254.752,268.5,18.283,18.283,0,0,1,273,286.755Zm-9.62-92.006H85.5a18.735,18.735,0,0,1-18.71-18.72V79.178l215.294,29.673v67.112A18.75,18.75,0,0,1,263.377,194.749Z"/>
</svg>
